<svg width="172" height="101" viewBox="0 0 172 101" fill="none" xmlns="http://www.w3.org/2000/svg">
<path opacity="0.5" fill-rule="evenodd" clip-rule="evenodd" d="M99.7111 8.84313C132.133 8.82353 170.1 -10.5108 193.223 11.9259C216.363 34.3797 204.285 72.8119 198.027 104.242C193.205 128.458 182.076 150.88 162.5 166.228C144.963 179.976 121.909 178.407 99.7111 181.32C71.4961 185.023 37.5639 205.331 17.6673 185.237C-2.25427 165.118 25.2301 132.318 23.3896 104.242C21.2649 71.83 -14.0781 37.528 6.31372 12.0389C26.3851 -13.0496 67.3274 8.86271 99.7111 8.84313Z" fill="#4932C3"/>
<path fill-rule="evenodd" clip-rule="evenodd" d="M114.14 16.859C146.562 16.8394 184.529 -2.49489 207.652 19.9418C230.792 42.3956 218.714 80.8278 212.456 112.258C207.634 136.474 196.505 158.896 176.928 174.244C159.392 187.992 136.338 186.422 114.14 189.336C85.9249 193.039 51.9926 213.347 32.096 193.253C12.1744 173.134 39.6588 140.334 37.8183 112.258C35.6936 79.8459 0.350577 45.5439 20.7424 20.0548C40.8138 -5.03373 81.7561 16.8786 114.14 16.859Z" fill="#4932C3"/>
</svg>
