<svg width="24" height="25" viewBox="0 0 24 25" fill="none" xmlns="http://www.w3.org/2000/svg">
<path d="M11.11 4.67229C11.3736 4.64312 11.6149 4.51042 11.7806 4.30338C11.9464 4.09634 12.0232 3.83192 11.994 3.56829C11.9648 3.30467 11.8321 3.06343 11.6251 2.89765C11.418 2.73187 11.1536 2.65512 10.89 2.68429C5.888 3.23729 2 7.47529 2 12.6233C2 18.1463 6.477 22.6233 12 22.6233C17.146 22.6233 21.383 18.7363 21.939 13.7373C21.9682 13.4737 21.8914 13.2093 21.7256 13.0022C21.5599 12.7952 21.3186 12.6625 21.055 12.6333C20.7914 12.6041 20.527 12.6809 20.3199 12.8466C20.1129 13.0124 19.9802 13.2537 19.951 13.5173C19.7207 15.5474 18.7225 17.4125 17.161 18.7301C15.5996 20.0478 13.5932 20.7182 11.5533 20.6038C9.51335 20.4895 7.59445 19.5991 6.19001 18.1152C4.78558 16.6314 4.00202 14.6664 4 12.6233C4.00006 10.6556 4.72519 8.75696 6.03681 7.29019C7.34844 5.82342 9.15456 4.89142 11.11 4.67229ZM14.767 3.01429C14.5143 2.95053 14.2466 2.98796 14.0211 3.11862C13.7955 3.24929 13.6299 3.46285 13.5595 3.71381C13.4891 3.96478 13.5195 4.23332 13.6442 4.46222C13.7689 4.69113 13.978 4.86231 14.227 4.93929C14.514 5.02029 14.796 5.11729 15.069 5.22929C15.3146 5.32968 15.59 5.32839 15.8346 5.22571C16.0793 5.12304 16.2731 4.92738 16.3735 4.68179C16.4739 4.4362 16.4726 4.16079 16.3699 3.91615C16.2672 3.67151 16.0716 3.47768 15.826 3.37729C15.4802 3.23625 15.1266 3.11505 14.767 3.01429ZM17.349 5.31429C17.4378 5.21757 17.5449 5.13929 17.6639 5.08393C17.783 5.02857 17.9119 4.99721 18.0431 4.99163C18.1743 4.98606 18.3053 5.00639 18.4287 5.05146C18.552 5.09653 18.6653 5.16545 18.762 5.25429C18.974 5.44829 19.177 5.65129 19.371 5.86229C19.5503 6.05776 19.6446 6.31644 19.6331 6.58143C19.6217 6.84642 19.5055 7.09601 19.31 7.27529C19.1145 7.45458 18.8559 7.54888 18.5909 7.53744C18.3259 7.526 18.0763 7.40976 17.897 7.21429C17.7421 7.04535 17.5799 6.8832 17.411 6.72829C17.3141 6.63959 17.2357 6.53268 17.1802 6.41366C17.1246 6.29464 17.0931 6.16585 17.0873 6.03464C17.0816 5.90342 17.1017 5.77236 17.1466 5.64894C17.1915 5.52551 17.2603 5.41214 17.349 5.31529V5.31429ZM11 6.62329C11.2652 6.62329 11.5196 6.72865 11.7071 6.91619C11.8946 7.10372 12 7.35808 12 7.62329V12.6233H15C15.2652 12.6233 15.5196 12.7287 15.7071 12.9162C15.8946 13.1037 16 13.3581 16 13.6233C16 13.8885 15.8946 14.1429 15.7071 14.3304C15.5196 14.5179 15.2652 14.6233 15 14.6233H11C10.7348 14.6233 10.4804 14.5179 10.2929 14.3304C10.1054 14.1429 10 13.8885 10 13.6233V7.62329C10 7.35808 10.1054 7.10372 10.2929 6.91619C10.4804 6.72865 10.7348 6.62329 11 6.62329ZM19.94 8.24629C20.1855 8.14594 20.4607 8.14718 20.7053 8.24976C20.9498 8.35234 21.1436 8.54785 21.244 8.79329C21.3858 9.1404 21.5077 9.49531 21.609 9.85629C21.6484 9.98387 21.6619 10.1181 21.6487 10.2509C21.6354 10.3838 21.5957 10.5127 21.5318 10.63C21.4679 10.7472 21.3812 10.8505 21.2768 10.9337C21.1723 11.017 21.0523 11.0784 20.9237 11.1145C20.7951 11.1506 20.6606 11.1605 20.5282 11.1438C20.3957 11.127 20.2679 11.0839 20.1523 11.0169C20.0368 10.95 19.9358 10.8606 19.8554 10.754C19.7749 10.6474 19.7167 10.5258 19.684 10.3963C19.6031 10.109 19.5059 9.82657 19.393 9.55029C19.2926 9.30496 19.2937 9.02979 19.3961 8.78527C19.4985 8.54075 19.6937 8.34689 19.939 8.24629H19.94Z" fill="white"/>
</svg>
