<svg width="24" height="25" viewBox="0 0 24 25" fill="none" xmlns="http://www.w3.org/2000/svg">
<path d="M11.11 4.67181C11.3736 4.64263 11.6149 4.50993 11.7806 4.30289C11.9464 4.09585 12.0232 3.83143 11.994 3.56781C11.9648 3.30418 11.8321 3.06294 11.6251 2.89716C11.418 2.73138 11.1536 2.65463 10.89 2.68381C5.888 3.23681 2 7.47481 2 12.6228C2 18.1458 6.477 22.6228 12 22.6228C17.146 22.6228 21.383 18.7358 21.939 13.7368C21.9682 13.4732 21.8914 13.2088 21.7256 13.0017C21.5599 12.7947 21.3186 12.662 21.055 12.6328C20.7914 12.6036 20.527 12.6804 20.3199 12.8462C20.1129 13.0119 19.9802 13.2532 19.951 13.5168C19.7207 15.5469 18.7225 17.412 17.161 18.7296C15.5996 20.0473 13.5932 20.7177 11.5533 20.6034C9.51335 20.489 7.59445 19.5986 6.19001 18.1148C4.78558 16.6309 4.00202 14.6659 4 12.6228C4.00006 10.6551 4.72519 8.75647 6.03681 7.2897C7.34844 5.82294 9.15456 4.89093 11.11 4.67181ZM14.767 3.01381C14.5143 2.95004 14.2466 2.98747 14.0211 3.11814C13.7955 3.2488 13.6299 3.46236 13.5595 3.71333C13.4891 3.96429 13.5195 4.23283 13.6442 4.46174C13.7689 4.69064 13.978 4.86182 14.227 4.93881C14.514 5.01981 14.796 5.11681 15.069 5.22881C15.3146 5.32919 15.59 5.3279 15.8346 5.22523C16.0793 5.12255 16.2731 4.9269 16.3735 4.68131C16.4739 4.43571 16.4726 4.16031 16.3699 3.91566C16.2672 3.67102 16.0716 3.47719 15.826 3.37681C15.4802 3.23576 15.1266 3.11457 14.767 3.01381ZM17.349 5.31381C17.4378 5.21708 17.5449 5.1388 17.6639 5.08344C17.783 5.02808 17.9119 4.99672 18.0431 4.99115C18.1743 4.98557 18.3053 5.0059 18.4287 5.05097C18.552 5.09604 18.6653 5.16496 18.762 5.25381C18.974 5.44781 19.177 5.65081 19.371 5.86181C19.5503 6.05727 19.6446 6.31595 19.6331 6.58094C19.6217 6.84593 19.5055 7.09552 19.31 7.27481C19.1145 7.45409 18.8559 7.54839 18.5909 7.53695C18.3259 7.52551 18.0763 7.40927 17.897 7.21381C17.7421 7.04487 17.5799 6.88271 17.411 6.72781C17.3141 6.63911 17.2357 6.53219 17.1802 6.41317C17.1246 6.29415 17.0931 6.16536 17.0873 6.03415C17.0816 5.90294 17.1017 5.77187 17.1466 5.64845C17.1915 5.52502 17.2603 5.41165 17.349 5.31481V5.31381ZM11 6.62281C11.2652 6.62281 11.5196 6.72816 11.7071 6.9157C11.8946 7.10324 12 7.35759 12 7.62281V12.6228H15C15.2652 12.6228 15.5196 12.7282 15.7071 12.9157C15.8946 13.1032 16 13.3576 16 13.6228C16 13.888 15.8946 14.1424 15.7071 14.3299C15.5196 14.5174 15.2652 14.6228 15 14.6228H11C10.7348 14.6228 10.4804 14.5174 10.2929 14.3299C10.1054 14.1424 10 13.888 10 13.6228V7.62281C10 7.35759 10.1054 7.10324 10.2929 6.9157C10.4804 6.72816 10.7348 6.62281 11 6.62281ZM19.94 8.24581C20.1855 8.14545 20.4607 8.14669 20.7053 8.24927C20.9498 8.35185 21.1436 8.54736 21.244 8.79281C21.3858 9.13991 21.5077 9.49482 21.609 9.85581C21.6484 9.98339 21.6619 10.1176 21.6487 10.2505C21.6354 10.3833 21.5957 10.5122 21.5318 10.6295C21.4679 10.7468 21.3812 10.85 21.2768 10.9333C21.1723 11.0165 21.0523 11.0779 20.9237 11.114C20.7951 11.1501 20.6606 11.16 20.5282 11.1433C20.3957 11.1265 20.2679 11.0834 20.1523 11.0164C20.0368 10.9495 19.9358 10.8601 19.8554 10.7535C19.7749 10.6469 19.7167 10.5253 19.684 10.3958C19.6031 10.1085 19.5059 9.82608 19.393 9.54981C19.2926 9.30447 19.2937 9.0293 19.3961 8.78478C19.4985 8.54026 19.6937 8.3464 19.939 8.24581H19.94Z" fill="#6145E3"/>
</svg>
