<svg width="24" height="25" viewBox="0 0 24 25" fill="none" xmlns="http://www.w3.org/2000/svg">
<path d="M6 4.62329V8.62329H18V4.62329H20.007C20.555 4.62329 21 5.06829 21 5.61629V21.6303C20.9997 
21.8936 20.895 22.146 20.7089 22.3322C20.5227 22.5183 20.2703 22.623 20.007 22.6233H3.993C3.72972 
22.623 3.4773 22.5183 3.29114 22.3322C3.10497 22.146 3.00026 21.8936 3 21.6303V5.61629C3 5.06829 
3.445 4.62329 3.993 4.62329H6ZM9 17.6233H7V19.6233H9V17.6233ZM9 14.6233H7V16.6233H9V14.6233ZM9 
11.6233H7V13.6233H9V11.6233ZM16 2.62329V6.62329H8V2.62329H16Z" fill="#6145E3"/>
</svg>
