<svg width="16" height="16" viewBox="0 0 16 16" fill="none" xmlns="http://www.w3.org/2000/svg">
<path d="M13.125 4.00313V0.5H2.875V4.00313C2.23466 4.03594 1.63134 4.31323 1.18944 4.77781C0.747536 5.24239 0.50076 5.85882 0.5 6.5V12.5H2.625V11.5H1.5V6.5C1.50045 6.10231 1.65863 5.72104 1.93983 5.43983C2.22104 5.15863 2.60231 5.00045 3 5H13C13.3977 5.00045 13.779 5.15863 14.0602 5.43983C14.3414 5.72104 14.4996 6.10231 14.5 6.5V11.5H13.125V12.5H15.5V6.5C15.4992 5.85882 15.2525 5.24239 14.8106 4.77781C14.3687 4.31323 13.7653 4.03594 13.125 4.00313ZM12.125 4H3.875V1.5H12.125V4Z" fill="#6145E3"/>
<path d="M12.375 6.25H13.375V7.25H12.375V6.25ZM3.625 8.25H2.375V9.25H3.625V15.5H12.125V9.25H13.375V8.25H3.625ZM11.125 14.5H4.625V9.25H11.125V14.5Z" fill="#6145E3"/>
</svg>
