<svg width="32" height="32" viewBox="0 0 32 32" fill="none" xmlns="http://www.w3.org/2000/svg">
<path d="M8 5.33341V10.6667H24V5.33341H26.676C27.4067 5.33341 28 5.92675 28 6.65741V28.0094C27.9996 28.3605 27.86 28.697 27.6118 28.9452C27.3636 29.1935 27.027 29.3331 26.676 29.3334H5.324C4.97296 29.3331 4.6364 29.1935 4.38818 28.9452C4.13996 28.697 4.00035 28.3605 4 28.0094V6.65741C4 5.92675 4.59333 5.33341 5.324 5.33341H8ZM12 22.6667H9.33333V25.3334H12V22.6667ZM12 18.6667H9.33333V21.3334H12V18.6667ZM12 14.6667H9.33333V17.3334H12V14.6667ZM21.3333 2.66675V8.00008H10.6667V2.66675H21.3333Z" fill="#6145E3"/>
</svg>
