<svg width="24" height="25" viewBox="0 0 24 25" fill="none" xmlns="http://www.w3.org/2000/svg">
<path fill-rule="evenodd" clip-rule="evenodd" d="M8.048 6.04567C7.87298 5.87052 7.66518 5.73156 7.43645 5.63672C7.20773 5.54187 6.96256 5.49301 6.71496 5.49292C6.46735 5.49283 6.22215 5.54151 5.99335 5.63617C5.76456 5.73084 5.55665 5.86965 5.3815 6.04467L5.0295 6.39667C4.68914 6.29975 4.329 6.296 3.98669 6.3858C3.64438 6.4756 3.33246 6.65566 3.0835 6.90717C2.70964 7.28483 2.49993 7.79476 2.49993 8.32617C2.49993 8.85758 2.70964 9.36751 3.0835 9.74517L3.5 10.1647V15.4932H2V16.4932H3.025C2.77669 16.7365 2.60647 17.0482 2.53604 17.3886C2.46561 17.7291 2.49817 18.0828 2.62957 18.4046C2.76096 18.7265 2.98524 19.0019 3.27379 19.1958C3.56235 19.3896 3.90211 19.4932 4.24975 19.4932C4.59739 19.4932 4.93715 19.3896 5.22571 19.1958C5.51426 19.0019 5.73854 18.7265 5.86993 18.4046C6.00133 18.0828 6.03389 17.7291 5.96346 17.3886C5.89303 17.0482 5.72281 16.7365 5.4745 16.4932H18.5255C18.2772 16.7365 18.107 17.0482 18.0365 17.3886C17.9661 17.7291 17.9987 18.0828 18.1301 18.4046C18.2615 18.7265 18.4857 19.0019 18.7743 19.1958C19.0629 19.3896 19.4026 19.4932 19.7502 19.4932C20.0979 19.4932 20.4376 19.3896 20.7262 19.1958C21.0148 19.0019 21.239 18.7265 21.3704 18.4046C21.5018 18.0828 21.5344 17.7291 21.464 17.3886C21.3935 17.0482 21.2233 16.7365 20.975 16.4932H22V15.4932H20V13.9367C20.4294 13.8292 20.8104 13.581 21.0822 13.2318C21.3541 12.8825 21.5012 12.4523 21.5 12.0097C21.5 10.9147 20.6195 10.0262 19.533 10.0262H9.055C9.03476 10.0262 9.01471 10.0223 8.99601 10.0146C8.9773 10.0068 8.96031 9.99549 8.946 9.98117L8.763 9.79617L8.9475 9.61267C9.12268 9.43765 9.26165 9.22983 9.35649 9.00109C9.45132 8.77234 9.50016 8.52715 9.50021 8.27952C9.50025 8.0319 9.45151 7.78669 9.35676 7.55791C9.26201 7.32913 9.12311 7.12125 8.948 6.94617L8.048 6.04617V6.04567ZM8.058 9.08717L8.2405 8.90517C8.32274 8.82298 8.38798 8.72539 8.4325 8.61798C8.47701 8.51057 8.49992 8.39544 8.49992 8.27917C8.49992 8.1629 8.47701 8.04777 8.4325 7.94036C8.38798 7.83295 8.32274 7.73536 8.2405 7.65317L7.3405 6.75317C7.17458 6.58706 6.94949 6.49364 6.71471 6.49346C6.47993 6.49327 6.25468 6.58633 6.0885 6.75217L5.9135 6.92717L8.0585 9.08717H8.058ZM19 15.4932H4.5V11.1712L7.1375 13.8267C7.2435 13.9332 7.3865 13.9932 7.536 13.9932H19V15.4932Z" fill="white"/>
</svg>
