<svg width="24" height="24" viewBox="0 0 24 24" fill="none" xmlns="http://www.w3.org/2000/svg">
<path d="M8.5018 3.5999C8.62594 3.24881 8.8559 2.94486 9.16002 2.72994C9.46413 2.51502 9.82741 2.39971 10.1998 2.3999H13.7998C14.1722 2.39971 14.5355 2.51502 14.8396 2.72994C15.1437 2.94486 15.3737 3.24881 15.4978 3.5999H17.3998C17.8772 3.5999 18.335 3.78954 18.6726 4.12711C19.0102 4.46468 19.1998 4.92251 19.1998 5.3999V11.9999H14.3998C13.445 11.9999 12.5294 12.3792 11.8542 13.0543C11.1791 13.7294 10.7998 14.6451 10.7998 15.5999V20.3999C10.7998 20.8199 10.8718 21.2243 11.0038 21.5999H6.5998C6.12242 21.5999 5.66458 21.4103 5.32701 21.0727C4.98945 20.7351 4.7998 20.2773 4.7998 19.7999V5.3999C4.7998 4.92251 4.98945 4.46468 5.32701 4.12711C5.66458 3.78954 6.12242 3.5999 6.5998 3.5999H8.5018ZM10.1998 3.5999C10.0407 3.5999 9.88806 3.66312 9.77554 3.77564C9.66302 3.88816 9.5998 4.04077 9.5998 4.1999C9.5998 4.35903 9.66302 4.51164 9.77554 4.62417C9.88806 4.73669 10.0407 4.7999 10.1998 4.7999H13.7998C13.9589 4.7999 14.1115 4.73669 14.2241 4.62417C14.3366 4.51164 14.3998 4.35903 14.3998 4.1999C14.3998 4.04077 14.3366 3.88816 14.2241 3.77564C14.1115 3.66312 13.9589 3.5999 13.7998 3.5999H10.1998ZM14.3998 13.1999C13.7633 13.1999 13.1528 13.4528 12.7027 13.9028C12.2527 14.3529 11.9998 14.9634 11.9998 15.5999V20.3999C11.9998 21.0364 12.2527 21.6469 12.7027 22.097C13.1528 22.547 13.7633 22.7999 14.3998 22.7999H20.3998C21.0363 22.7999 21.6468 22.547 22.0969 22.097C22.5469 21.6469 22.7998 21.0364 22.7998 20.3999V15.5999C22.7998 14.9634 22.5469 14.3529 22.0969 13.9028C21.6468 13.4528 21.0363 13.1999 20.3998 13.1999H14.3998ZM14.3998 19.7999C14.3998 19.6408 14.463 19.4882 14.5755 19.3756C14.6881 19.2631 14.8407 19.1999 14.9998 19.1999H19.7998C19.9589 19.1999 20.1115 19.2631 20.2241 19.3756C20.3366 19.4882 20.3998 19.6408 20.3998 19.7999C20.3998 19.959 20.3366 20.1116 20.2241 20.2242C20.1115 20.3367 19.9589 20.3999 19.7998 20.3999H14.9998C14.8407 20.3999 14.6881 20.3367 14.5755 20.2242C14.463 20.1116 14.3998 19.959 14.3998 19.7999ZM14.3998 16.1999C14.3998 16.0408 14.463 15.8882 14.5755 15.7756C14.6881 15.6631 14.8407 15.5999 14.9998 15.5999H19.7998C19.9589 15.5999 20.1115 15.6631 20.2241 15.7756C20.3366 15.8882 20.3998 16.0408 20.3998 16.1999C20.3998 16.359 20.3366 16.5116 20.2241 16.6242C20.1115 16.7367 19.9589 16.7999 19.7998 16.7999H14.9998C14.8407 16.7999 14.6881 16.7367 14.5755 16.6242C14.463 16.5116 14.3998 16.359 14.3998 16.1999Z" fill="white"/>
</svg>
