<svg width="24" height="25" viewBox="0 0 24 25" fill="none" xmlns="http://www.w3.org/2000/svg">
<path d="M21 16.1165C21 15.6165 20.95 15.1965 20.88 14.7965L22.45 14.0165L21.55 12.2165L20.18 12.9065C19.63 12.0765 18.91 11.6165 18.29 11.3965L18.95 9.43645L17.05 8.79646L16.29 11.0765C14.96 10.9465 14.17 10.4365 13.7 9.88646L15.45 9.01645L14.55 7.21645L13 8.00645C12.9307 7.28395 12.6833 6.58991 12.28 5.98645L13.83 3.66646L12.17 2.55646L10.76 4.67646C10.28 4.44646 9.70004 4.26645 9.00004 4.17646V2.11646H7.00004V4.21645C6.29004 4.36646 5.73004 4.65646 5.32004 5.02645L2.70004 2.40646L1.29004 3.82646L4.24004 6.76646C4.00004 7.50646 4.00004 8.11646 4.00004 8.11646H2.00004V10.1165H4.04004C4.10004 10.7465 4.21004 11.4765 4.40004 12.2665L1.68004 13.1665L2.31004 15.0665L5.00004 14.1665C5.24004 14.6765 5.50004 15.1965 5.82004 15.6965L3.44004 17.2865L4.55004 18.9465L7.07004 17.2665C7.63004 17.8265 8.29004 18.3265 9.06004 18.7565L8.10004 20.6665L9.89004 21.5665L10.89 19.5665L10.73 19.4765C11.68 19.7965 12.76 20.0165 14 20.0865V22.1165H16V20.0465C16.76 19.9565 17.81 19.7565 18.77 19.3065L20.29 20.8265L21.7 19.4065L20.37 18.0665C20.75 17.5565 21 16.9165 21 16.1165ZM8.50004 11.1165C8.10221 11.1165 7.72068 10.9584 7.43938 10.6771C7.15807 10.3958 7.00004 10.0143 7.00004 9.61646C7.00004 9.21863 7.15807 8.8371 7.43938 8.55579C7.72068 8.27449 8.10221 8.11646 8.50004 8.11646C8.89786 8.11646 9.27939 8.27449 9.5607 8.55579C9.842 8.8371 10 9.21863 10 9.61646C10 10.0143 9.842 10.3958 9.5607 10.6771C9.27939 10.9584 8.89786 11.1165 8.50004 11.1165ZM11 14.1165C10.7348 14.1165 10.4805 14.0111 10.2929 13.8236C10.1054 13.636 10 13.3817 10 13.1165C10 12.8512 10.1054 12.5969 10.2929 12.4093C10.4805 12.2218 10.7348 12.1165 11 12.1165C11.2653 12.1165 11.5196 12.2218 11.7071 12.4093C11.8947 12.5969 12 12.8512 12 13.1165C12 13.3817 11.8947 13.636 11.7071 13.8236C11.5196 14.0111 11.2653 14.1165 11 14.1165ZM15.5 17.1165C15.1022 17.1165 14.7207 16.9584 14.4394 16.6771C14.1581 16.3958 14 16.0143 14 15.6165C14 15.2186 14.1581 14.8371 14.4394 14.5558C14.7207 14.2745 15.1022 14.1165 15.5 14.1165C15.8979 14.1165 16.2794 14.2745 16.5607 14.5558C16.842 14.8371 17 15.2186 17 15.6165C17 16.0143 16.842 16.3958 16.5607 16.6771C16.2794 16.9584 15.8979 17.1165 15.5 17.1165Z" fill="#6145e3"/>
</svg>
