<svg width="24" height="25" viewBox="0 0 24 25" fill="none" xmlns="http://www.w3.org/2000/svg">
<g clip-path="url(#clip0_144_625)">
<path d="M24 23.9324V24.8699H0V23.9324C0 23.6217 0.287839 23.3699 0.642857 23.3699H1.71429V6.49487C1.71429 5.87354 2.28991 5.36987 3 5.36987H7.71429V1.99487C7.71429 1.37354 8.28991 0.869873 9 0.869873H15C15.7101 0.869873 16.2857 1.37354 16.2857 1.99487V5.36987H21C21.7101 5.36987 22.2857 5.87354 22.2857 6.49487V23.3699H23.3571C23.7122 23.3699 24 23.6217 24 23.9324ZM16.5 9.86987H14.3571C14.0021 9.86987 13.7143 10.1217 13.7143 10.4324V12.3074C13.7143 12.618 14.0021 12.8699 14.3571 12.8699H16.5C16.855 12.8699 17.1429 12.618 17.1429 12.3074V10.4324C17.1429 10.1217 16.855 9.86987 16.5 9.86987ZM7.5 12.8699H9.64286C9.99788 12.8699 10.2857 12.618 10.2857 12.3074V10.4324C10.2857 10.1217 9.99788 9.86987 9.64286 9.86987H7.5C7.14498 9.86987 6.85714 10.1217 6.85714 10.4324V12.3074C6.85714 12.618 7.14498 12.8699 7.5 12.8699ZM13.0714 18.8699H10.9286C10.5736 18.8699 10.2857 19.1217 10.2857 19.4324V23.3699H13.7143V19.4324C13.7143 19.1217 13.4264 18.8699 13.0714 18.8699ZM16.5 14.3699H14.3571C14.0021 14.3699 13.7143 14.6217 13.7143 14.9324V16.8074C13.7143 17.118 14.0021 17.3699 14.3571 17.3699H16.5C16.855 17.3699 17.1429 17.118 17.1429 16.8074V14.9324C17.1429 14.6217 16.855 14.3699 16.5 14.3699ZM10.2857 14.9324C10.2857 14.6217 9.99788 14.3699 9.64286 14.3699H7.5C7.14498 14.3699 6.85714 14.6217 6.85714 14.9324V16.8074C6.85714 17.118 7.14498 17.3699 7.5 17.3699H9.64286C9.99788 17.3699 10.2857 17.118 10.2857 16.8074V14.9324ZM9.75 5.36987H11.1429V6.58862C11.1429 6.66322 11.1767 6.73475 11.237 6.7875C11.2973 6.84024 11.379 6.86987 11.4643 6.86987H12.5357C12.621 6.86987 12.7027 6.84024 12.763 6.7875C12.8233 6.73475 12.8571 6.66322 12.8571 6.58862V5.36987H14.25C14.3352 5.36987 14.417 5.34024 14.4773 5.2875C14.5376 5.23475 14.5714 5.16322 14.5714 5.08862V4.15112C14.5714 4.07653 14.5376 4.00499 14.4773 3.95225C14.417 3.8995 14.3352 3.86987 14.25 3.86987H12.8571V2.65112C12.8571 2.57653 12.8233 2.50499 12.763 2.45225C12.7027 2.3995 12.621 2.36987 12.5357 2.36987H11.4643C11.379 2.36987 11.2973 2.3995 11.237 2.45225C11.1767 2.50499 11.1429 2.57653 11.1429 2.65112V3.86987H9.75C9.66475 3.86987 9.583 3.8995 9.52272 3.95225C9.46244 4.00499 9.42857 4.07653 9.42857 4.15112V5.08862C9.42857 5.16322 9.46244 5.23475 9.52272 5.2875C9.583 5.34024 9.66475 5.36987 9.75 5.36987Z" fill="white"/>
</g>
<defs>
<clipPath id="clip0_144_625">
<rect width="24" height="24" fill="white" transform="translate(0 0.869873)"/>
</clipPath>
</defs>
</svg>
