<!-- <svg xmlns="http://www.w3.org/2000/svg" x="0px" y="0px"
width="16" height="16"
viewBox="0 0 16 16"
style=" fill:#undefined;"><polygon fill="#8852ff" points="10.515,12.555 12.555,10.516 14.363,12.95 12.949,14.364"></polygon><polygon fill="#8852ff" points="6.558,13 9.442,13 9,16 7,16"></polygon><polygon fill="#8852ff" points="3.445,10.515 5.484,12.555 3.05,14.363 1.636,12.949"></polygon><polygon fill="#8852ff" points="3,6.558 3,9.442 0,9 0,7"></polygon><polygon fill="#8852ff" points="5.485,3.445 3.445,5.484 1.637,3.05 3.051,1.636"></polygon><polygon fill="#8852ff" points="9.442,3 6.558,3 7,0 9,0"></polygon><polygon fill="#8852ff" points="12.555,5.485 10.516,3.445 12.95,1.637 14.364,3.051"></polygon><polygon fill="#8852ff" points="13,9.442 13,6.558 16,7 16,9"></polygon><path fill="#8852ff" d="M8,2C4.686,2,2,4.686,2,8s2.686,6,6,6s6-2.686,6-6S11.314,2,8,2z M8,10c-1.105,0-2-0.895-2-2 c0-1.105,0.895-2,2-2s2,0.895,2,2C10,9.105,9.105,10,8,10z"></path></svg> -->


<svg width="24" height="25" viewBox="0 0 24 25" fill="none" xmlns="http://www.w3.org/2000/svg">
<g clip-path="url(#clip0_146_2679)">
<path d="M13.2936 0.623293C13.6464 0.623293 13.962 0.842893 14.0808 1.17169L14.928 3.52009C15.2316 3.59569 15.492 3.67129 15.7128 3.75049C15.954 3.83689 16.2648 3.96769 16.6488 4.14649L18.6216 3.10249C18.7826 3.01718 18.9669 2.98639 19.1469 3.01473C19.327 3.04307 19.4929 3.12903 19.62 3.25969L21.3552 5.05369C21.5856 5.29249 21.6504 5.64169 21.5208 5.94649L20.5956 8.11489C20.7492 8.39689 20.8716 8.63809 20.9652 8.83969C21.066 9.05929 21.1908 9.36169 21.3396 9.75169L23.496 10.6757C23.82 10.8137 24.0204 11.1377 23.9988 11.4845L23.8404 13.9745C23.8295 14.1363 23.7714 14.2913 23.6733 14.4203C23.5752 14.5494 23.4413 14.6468 23.2884 14.7005L21.246 15.4265C21.1872 15.7085 21.126 15.9497 21.0612 16.1537C20.9566 16.4688 20.8373 16.7787 20.7036 17.0825L21.7296 19.3505C21.802 19.5098 21.8215 19.6882 21.7852 19.8594C21.7489 20.0307 21.6588 20.1858 21.528 20.3021L19.5768 22.0445C19.4483 22.1588 19.2879 22.231 19.1172 22.2516C18.9465 22.2722 18.7735 22.2401 18.6216 22.1597L16.6104 21.0941C16.2957 21.2607 15.9711 21.4078 15.6384 21.5345L14.76 21.8633L13.98 24.0233C13.9222 24.1815 13.8179 24.3185 13.6808 24.4164C13.5438 24.5142 13.3803 24.5684 13.212 24.5717L10.932 24.6233C10.7591 24.6278 10.5891 24.5787 10.4453 24.4826C10.3016 24.3866 10.1911 24.2483 10.1292 24.0869L9.20995 21.6545C8.89633 21.5473 8.5858 21.4313 8.27875 21.3065C8.02761 21.1978 7.78027 21.0805 7.53715 20.9549L5.25715 21.9293C5.10692 21.9934 4.9413 22.0124 4.78044 21.9841C4.61959 21.9558 4.47044 21.8813 4.35115 21.7697L2.66395 20.1869C2.53834 20.0696 2.45279 19.9157 2.41941 19.7471C2.38603 19.5785 2.40651 19.4036 2.47795 19.2473L3.45835 17.1113C3.32796 16.8583 3.20708 16.6005 3.09595 16.3385C2.96623 16.0178 2.84618 15.6932 2.73595 15.3653L0.587953 14.7113C0.413354 14.6585 0.261066 14.5496 0.15474 14.4014C0.0484149 14.2532 -0.00599784 14.074 -4.73183e-05 13.8917L0.0839527 11.5865C0.0899318 11.4361 0.136917 11.2902 0.219826 11.1645C0.302736 11.0389 0.418415 10.9383 0.554353 10.8737L2.80795 9.79129C2.91235 9.40849 3.00355 9.1109 3.08395 8.89369C3.19716 8.60359 3.32288 8.31852 3.46075 8.03929L2.48395 5.97529C2.40982 5.81855 2.38731 5.64234 2.41966 5.472C2.452 5.30165 2.53753 5.14596 2.66395 5.02729L4.34875 3.43609C4.46686 3.3247 4.61464 3.24981 4.77431 3.22043C4.93397 3.19105 5.09873 3.20844 5.24875 3.27049L7.52635 4.21129C7.77835 4.04329 8.00635 3.90769 8.21275 3.79849C8.45875 3.66769 8.78755 3.53089 9.20155 3.38329L9.99355 1.17409C10.0521 1.01242 10.1591 0.872751 10.3 0.774171C10.4409 0.67559 10.6088 0.6229 10.7808 0.623293H13.2936ZM12.0288 9.04609C10.0284 9.04609 8.40715 10.6481 8.40715 12.6257C8.40715 14.6033 10.0284 16.2065 12.0288 16.2065C14.028 16.2065 15.6492 14.6033 15.6492 12.6257C15.6492 10.6481 14.0292 9.04609 12.0288 9.04609Z" fill="#6145e3"/>
</g>
<defs>
<clipPath id="clip0_146_2679">
<rect width="24" height="24" fill="white" transform="translate(0 0.623291)"/>
</clipPath>
</defs>
</svg>
