<svg width="24" height="25" viewBox="0 0 24 25" fill="none" xmlns="http://www.w3.org/2000/svg">
<path d="M13 16.1301V17.1301C13 17.9258 12.6839 18.6888 12.1213 19.2514C11.5587 19.8141 10.7956 20.1301 10 20.1301H6C5.20435 20.1301 4.44129 19.8141 3.87868 19.2514C3.31607 18.6888 3 17.9258 3 17.1301V7.13013C3 6.33448 3.31607 5.57142 3.87868 5.00881C4.44129 4.4462 5.20435 4.13013 6 4.13013H10C10.7956 4.13013 11.5587 4.4462 12.1213 5.00881C12.6839 5.57142 13 6.33448 13 7.13013V8.13013M17 16.1301L21 12.1301L17 16.1301ZM21 12.1301L17 8.13013L21 12.1301ZM21 12.1301H7H21Z" stroke="white" stroke-width="2" stroke-linecap="round" stroke-linejoin="round"/>
</svg>
