<svg width="24" height="25" viewBox="0 0 24 25" fill="none" xmlns="http://www.w3.org/2000/svg">
<path fill-rule="evenodd" clip-rule="evenodd" d="M8.048 6.04494C7.87298 5.86979 7.66518 5.73082 7.43645 5.63598C7.20773 5.54114 6.96256 5.49228 6.71496 5.49219C6.46735 5.49209 6.22215 5.54077 5.99335 5.63544C5.76456 5.73011 5.55665 5.86892 5.3815 6.04394L5.0295 6.39594C4.68914 6.29902 4.329 6.29527 3.98669 6.38507C3.64438 6.47486 3.33246 6.65492 3.0835 6.90644C2.70964 7.2841 2.49993 7.79403 2.49993 8.32544C2.49993 8.85684 2.70964 9.36678 3.0835 9.74444L3.5 10.1639V15.4924H2V16.4924H3.025C2.77669 16.7357 2.60647 17.0475 2.53604 17.3879C2.46561 17.7283 2.49817 18.082 2.62957 18.4039C2.76096 18.7257 2.98524 19.0011 3.27379 19.195C3.56235 19.3889 3.90211 19.4924 4.24975 19.4924C4.59739 19.4924 4.93715 19.3889 5.22571 19.195C5.51426 19.0011 5.73854 18.7257 5.86993 18.4039C6.00133 18.082 6.03389 17.7283 5.96346 17.3879C5.89303 17.0475 5.72281 16.7357 5.4745 16.4924H18.5255C18.2772 16.7357 18.107 17.0475 18.0365 17.3879C17.9661 17.7283 17.9987 18.082 18.1301 18.4039C18.2615 18.7257 18.4857 19.0011 18.7743 19.195C19.0629 19.3889 19.4026 19.4924 19.7502 19.4924C20.0979 19.4924 20.4376 19.3889 20.7262 19.195C21.0148 19.0011 21.239 18.7257 21.3704 18.4039C21.5018 18.082 21.5344 17.7283 21.464 17.3879C21.3935 17.0475 21.2233 16.7357 20.975 16.4924H22V15.4924H20V13.9359C20.4294 13.8285 20.8104 13.5803 21.0822 13.2311C21.3541 12.8818 21.5012 12.4515 21.5 12.0089C21.5 10.9139 20.6195 10.0254 19.533 10.0254H9.055C9.03476 10.0255 9.01471 10.0215 8.99601 10.0138C8.9773 10.0061 8.96031 9.99475 8.946 9.98044L8.763 9.79544L8.9475 9.61194C9.12268 9.43692 9.26165 9.2291 9.35649 9.00036C9.45132 8.77161 9.50016 8.52642 9.50021 8.27879C9.50025 8.03117 9.45151 7.78596 9.35676 7.55718C9.26201 7.32839 9.12311 7.12052 8.948 6.94544L8.048 6.04544V6.04494ZM8.058 9.08644L8.2405 8.90444C8.32274 8.82225 8.38798 8.72466 8.4325 8.61725C8.47701 8.50984 8.49992 8.39471 8.49992 8.27844C8.49992 8.16217 8.47701 8.04704 8.4325 7.93963C8.38798 7.83221 8.32274 7.73463 8.2405 7.65244L7.3405 6.75244C7.17458 6.58633 6.94949 6.49291 6.71471 6.49272C6.47993 6.49254 6.25468 6.58559 6.0885 6.75144L5.9135 6.92644L8.0585 9.08644H8.058ZM19 15.4924H4.5V11.1704L7.1375 13.8259C7.2435 13.9324 7.3865 13.9924 7.536 13.9924H19V15.4924Z" fill="#6145E3"/>
</svg>
