<svg width="32" height="32" viewBox="0 0 32 32" fill="none" xmlns="http://www.w3.org/2000/svg">
<path d="M32 30.75V32H0V30.75C0 30.3358 0.383786 30 0.857143 30H2.28571V7.5C2.28571 6.67156 3.05321 6 4 6H10.2857V1.5C10.2857 0.671562 11.0532 0 12 0H20C20.9468 0 21.7143 0.671562 21.7143 1.5V6H28C28.9468 6 29.7143 6.67156 29.7143 7.5V30H31.1429C31.6162 30 32 30.3358 32 30.75ZM22 12H19.1429C18.6695 12 18.2857 12.3358 18.2857 12.75V15.25C18.2857 15.6642 18.6695 16 19.1429 16H22C22.4734 16 22.8571 15.6642 22.8571 15.25V12.75C22.8571 12.3358 22.4734 12 22 12ZM10 16H12.8571C13.3305 16 13.7143 15.6642 13.7143 15.25V12.75C13.7143 12.3358 13.3305 12 12.8571 12H10C9.52664 12 9.14286 12.3358 9.14286 12.75V15.25C9.14286 15.6642 9.52664 16 10 16ZM17.4286 24H14.5714C14.0981 24 13.7143 24.3358 13.7143 24.75V30H18.2857V24.75C18.2857 24.3358 17.9019 24 17.4286 24ZM22 18H19.1429C18.6695 18 18.2857 18.3358 18.2857 18.75V21.25C18.2857 21.6642 18.6695 22 19.1429 22H22C22.4734 22 22.8571 21.6642 22.8571 21.25V18.75C22.8571 18.3358 22.4734 18 22 18ZM13.7143 18.75C13.7143 18.3358 13.3305 18 12.8571 18H10C9.52664 18 9.14286 18.3358 9.14286 18.75V21.25C9.14286 21.6642 9.52664 22 10 22H12.8571C13.3305 22 13.7143 21.6642 13.7143 21.25V18.75ZM13 6H14.8571V7.625C14.8571 7.72446 14.9023 7.81984 14.9827 7.89016C15.063 7.96049 15.1721 8 15.2857 8H16.7143C16.828 8 16.937 7.96049 17.0173 7.89016C17.0977 7.81984 17.1429 7.72446 17.1429 7.625V6H19C19.1137 6 19.2227 5.96049 19.303 5.89016C19.3834 5.81984 19.4286 5.72446 19.4286 5.625V4.375C19.4286 4.27554 19.3834 4.18016 19.303 4.10984C19.2227 4.03951 19.1137 4 19 4H17.1429V2.375C17.1429 2.27554 17.0977 2.18016 17.0173 2.10983C16.937 2.03951 16.828 2 16.7143 2H15.2857C15.1721 2 15.063 2.03951 14.9827 2.10983C14.9023 2.18016 14.8571 2.27554 14.8571 2.375V4H13C12.8863 4 12.7773 4.03951 12.697 4.10984C12.6166 4.18016 12.5714 4.27554 12.5714 4.375V5.625C12.5714 5.72446 12.6166 5.81984 12.697 5.89016C12.7773 5.96049 12.8863 6 13 6Z" fill="#6145E3"/>
</svg>
