<svg width="24" height="24" viewBox="0 0 24 24" fill="none" xmlns="http://www.w3.org/2000/svg">
<path d="M8.5018 3.60039C8.62594 3.2493 8.8559 2.94534 9.16002 2.73042C9.46413 2.5155 9.82741 2.4002 10.1998 2.40039H13.7998C14.1722 2.4002 14.5355 2.5155 14.8396 2.73042C15.1437 2.94534 15.3737 3.2493 15.4978 3.60039H17.3998C17.8772 3.60039 18.335 3.79003 18.6726 4.1276C19.0102 4.46516 19.1998 4.923 19.1998 5.40039V12.0004H14.3998C13.445 12.0004 12.5294 12.3797 11.8542 13.0548C11.1791 13.7299 10.7998 14.6456 10.7998 15.6004V20.4004C10.7998 20.8204 10.8718 21.2248 11.0038 21.6004H6.5998C6.12242 21.6004 5.66458 21.4107 5.32701 21.0732C4.98945 20.7356 4.7998 20.2778 4.7998 19.8004V5.40039C4.7998 4.923 4.98945 4.46516 5.32701 4.1276C5.66458 3.79003 6.12242 3.60039 6.5998 3.60039H8.5018ZM10.1998 3.60039C10.0407 3.60039 9.88806 3.66361 9.77554 3.77613C9.66302 3.88865 9.5998 4.04126 9.5998 4.20039C9.5998 4.35952 9.66302 4.51213 9.77554 4.62465C9.88806 4.73718 10.0407 4.80039 10.1998 4.80039H13.7998C13.9589 4.80039 14.1115 4.73718 14.2241 4.62465C14.3366 4.51213 14.3998 4.35952 14.3998 4.20039C14.3998 4.04126 14.3366 3.88865 14.2241 3.77613C14.1115 3.66361 13.9589 3.60039 13.7998 3.60039H10.1998ZM14.3998 13.2004C13.7633 13.2004 13.1528 13.4532 12.7027 13.9033C12.2527 14.3534 11.9998 14.9639 11.9998 15.6004V20.4004C11.9998 21.0369 12.2527 21.6474 12.7027 22.0974C13.1528 22.5475 13.7633 22.8004 14.3998 22.8004H20.3998C21.0363 22.8004 21.6468 22.5475 22.0969 22.0974C22.5469 21.6474 22.7998 21.0369 22.7998 20.4004V15.6004C22.7998 14.9639 22.5469 14.3534 22.0969 13.9033C21.6468 13.4532 21.0363 13.2004 20.3998 13.2004H14.3998ZM14.3998 19.8004C14.3998 19.6413 14.463 19.4886 14.5755 19.3761C14.6881 19.2636 14.8407 19.2004 14.9998 19.2004H19.7998C19.9589 19.2004 20.1115 19.2636 20.2241 19.3761C20.3366 19.4886 20.3998 19.6413 20.3998 19.8004C20.3998 19.9595 20.3366 20.1121 20.2241 20.2247C20.1115 20.3372 19.9589 20.4004 19.7998 20.4004H14.9998C14.8407 20.4004 14.6881 20.3372 14.5755 20.2247C14.463 20.1121 14.3998 19.9595 14.3998 19.8004ZM14.3998 16.2004C14.3998 16.0413 14.463 15.8886 14.5755 15.7761C14.6881 15.6636 14.8407 15.6004 14.9998 15.6004H19.7998C19.9589 15.6004 20.1115 15.6636 20.2241 15.7761C20.3366 15.8886 20.3998 16.0413 20.3998 16.2004C20.3998 16.3595 20.3366 16.5121 20.2241 16.6247C20.1115 16.7372 19.9589 16.8004 19.7998 16.8004H14.9998C14.8407 16.8004 14.6881 16.7372 14.5755 16.6247C14.463 16.5121 14.3998 16.3595 14.3998 16.2004Z" fill="#6145E3"/>
</svg>
